<?xml version="1.0" encoding="UTF-8" standalone="no"?>
<svg
   width="4096"
   height="4096"
   viewBox="0 0 192 192"
   fill="none"
   version="1.1"
   id="svg1"
   sodipodi:docname="rocky_linux_logo_black.svg"
   inkscape:version="1.3.2 (091e20ef0f, 2023-11-25)"
   xmlns:inkscape="http://www.inkscape.org/namespaces/inkscape"
   xmlns:sodipodi="http://sodipodi.sourceforge.net/DTD/sodipodi-0.dtd"
   xmlns="http://www.w3.org/2000/svg"
   xmlns:svg="http://www.w3.org/2000/svg">
  <defs
     id="defs1" />
  <sodipodi:namedview
     id="namedview1"
     pagecolor="#ffffff"
     bordercolor="#000000"
     borderopacity="0.25"
     inkscape:showpageshadow="2"
     inkscape:pageopacity="0.0"
     inkscape:pagecheckerboard="0"
     inkscape:deskcolor="#d1d1d1"
     inkscape:zoom="0.17895508"
     inkscape:cx="2045.206"
     inkscape:cy="2053.588"
     inkscape:window-width="1680"
     inkscape:window-height="981"
     inkscape:window-x="0"
     inkscape:window-y="0"
     inkscape:window-maximized="1"
     inkscape:current-layer="svg1" />
  <path
     fill-rule="evenodd"
     clip-rule="evenodd"
     d="M186.658 127.658C190.119 117.746 192 107.093 192 96C192 42.9807 149.019 0 96 0C42.9807 0 0 42.9807 0 96C0 122.234 10.523 146.011 27.5783 163.338L124.958 65.9584L149 90L186.658 127.658ZM169.122 158.205L124.958 114.042L55.7978 183.202C68.0269 188.849 81.6455 192 96 192C125.288 192 151.514 178.884 169.122 158.205Z"
     fill="#10B981"
     id="path1" />
  <path
     style="fill:#000000;stroke-width:5.58799"
     d="M 542.36788,3430.3013 C 452.32482,3334.5849 345.53613,3189.3487 274.29799,3065.7172 138.15656,2829.4482 52.714704,2570.5158 15.918486,2282.6958 1.9287075,2173.2677 1.8817063,1923.3811 15.830198,1813.3042 65.658953,1420.0724 211.06832,1072.6888 453.23202,768.34925 518.29496,686.5813 687.72354,517.71555 771.14325,451.49404 1083.747,203.33819 1444.1399,55.702337 1839.3258,13.910402 c 108.7299,-11.4984604 308.6185,-11.4984604 417.3484,0 416.4665,44.042421 790.9959,204.044768 1115.6805,476.628878 71.2391,59.80775 209.6064,202.09113 270.1636,277.80997 242.234,302.88155 386.8438,648.22775 437.5632,1044.95495 14.0446,109.8569 14.0446,359.5347 0,469.3916 -19.4195,151.8991 -57.9679,322.7507 -94.3576,418.2048 -6.0252,15.805 -8.7068,13.212 -663.1573,-641.2208 l -657.1077,-657.09 -1036.5601,1036.5714 C 1058.7907,3009.2755 590.71143,3475.7326 588.72261,3475.7326 c -1.98888,0 -22.84853,-20.4441 -46.35473,-45.4313 z"
     id="path2"
     transform="scale(0.046875)" />
  <path
     style="fill:#000000;stroke-width:5.58799"
     d="m 1950.2101,4089.6125 c -224.5802,-9.2028 -465.5422,-61.7774 -667.7654,-145.697 -29.1972,-12.1165 -60.001,-24.5911 -68.4529,-27.7213 -8.4518,-3.1302 -15.367,-7.3349 -15.367,-9.3436 0,-2.0088 330.0456,-333.6907 733.4345,-737.0709 l 733.4345,-733.4186 468.8985,468.9234 468.8985,468.9235 -22.6678,27.0133 c -12.4674,14.8573 -60.0275,63.5436 -105.6891,108.1917 -158.614,155.0931 -312.1221,265.3845 -505.5155,363.1993 -319.1541,161.4223 -651.0504,232.0866 -1019.2083,217.0002 z"
     id="path3"
     transform="scale(0.046875)" />
  <path
     style="fill:#ffffff;stroke-width:0;fill-opacity:1;stroke-dasharray:none;stroke:none"
     d="M 545.72046,3428.4079 C 444.60919,3321.964 329.92362,3161.2706 248.21124,3011.5484 125.08808,2785.9489 35.051165,2484.2337 14.033794,2226.8158 6.8325856,2138.6164 6.9104219,1958.7793 14.188598,1869.1492 34.476882,1619.301 111.08931,1355.3065 232.29202,1117.5989 342.61745,901.22421 480.64741,721.38762 673.53617,542.71034 992.05756,247.6567 1394.9374,66.019143 1841.2442,16.251588 c 75.9802,-8.4725303 337.9466,-8.4406988 413.5116,0.05025 397.3365,44.647159 740.2266,184.253102 1060.9878,431.975742 69.9828,54.04737 259.1304,241.51066 320.1284,317.27766 221.4192,275.02966 366.9041,600.00036 426.7809,953.30366 17.919,105.7312 24.9828,199.8188 24.8766,331.3496 -0.1524,188.7272 -17.7929,329.7547 -64.0645,512.1622 -26.4815,104.393 -37.876,136.6306 -48.2925,136.6306 -3.764,0 -298.8236,-291.6933 -655.6878,-648.2073 -356.8642,-356.5141 -651.2666,-648.2074 -654.2274,-648.2074 -2.9608,0 -470.5787,465.2006 -1039.1509,1033.779 -568.5722,568.5784 -1035.33647,1033.779 -1037.25393,1033.779 -1.91741,0 -21.32687,-18.7816 -43.13201,-41.7367 z"
     id="path4"
     transform="scale(0.046875)" />
  <path
     style="fill:#ffffff;stroke-width:0;fill-opacity:1;stroke-dasharray:none"
     d="m 1944.6221,4086.6457 c -168.427,-8.3039 -370.82,-45.4566 -528.0655,-96.9356 -68.0824,-22.2887 -212.3438,-78.7864 -212.3438,-83.161 0,-1.843 328.7883,-332.132 730.6406,-733.9755 l 730.6405,-730.6246 465.9883,466.0134 465.9884,466.0135 -11.4564,15.9533 c -19.1429,26.657 -179.196,181.1449 -240.8434,232.4691 -242.6196,201.9915 -545.306,350.3814 -852.638,417.9997 -175.6069,38.6365 -369.8096,55.0286 -547.9107,46.2477 z"
     id="path5"
     transform="scale(0.046875)" />
</svg>
