<svg xmlns="http://www.w3.org/2000/svg" viewBox="0 0 402 258"><g fill="none" stroke="gray" stroke-width="2"><path d="M401 1.27a.27.27 0 0 0-.27-.27H1.27a.27.27 0 0 0-.27.27v255.46a.27.27 0 0 0 .27.27h399.46a.27.27 0 0 0 .27-.27V1.27" vector-effect="non-scaling-stroke"/><path d="M294.1 118.86a.32.32 0 0 1-.54 0l-23.8-35.72a.32.32 0 0 0-.26-.14h-13.21a.32.32 0 0 0-.26.5l30.71 45.51a.32.32 0 0 1 0 .36l-58.73 88.13a.32.32 0 0 0 .27.5h14.22a.32.32 0 0 0 .26-.14l51.43-77.14a.32.32 0 0 1 .53-.01l24.55 36.15a.32.32 0 0 0 .27.14h12.19a.32.32 0 0 0 .27-.5l-30.55-45.82a.32.32 0 0 1 0-.36L360 42.5a.32.32 0 0 0-.27-.5h-14.24a.32.32 0 0 0-.26.14l-51.13 76.72M80.08 163.53c-1.53-.18-3.32-.07-4.75-.61-15.39-5.78-16.38-18.54-16.35-32.92q.05-23.24.01-46.5-.01-.5-.51-.5H45.55q-.49 0-.5.5-.18 44.01-.02 56.7.24 17.68 12.48 28.04c15.58 13.2 37 12.07 52.64-1.12 7.79-6.56 11.03-17.36 11.55-27.19q.7-13.4.16-56.52-.01-.41-.41-.41h-11.93a.52.52 0 0 0-.52.52q-.01 25.11.01 50.3 0 7.85-1.18 11.75c-3.94 12.99-14.24 19.58-27.75 17.96M150.98 105.02a.18.17-61.9 0 1 .32-.1l47.41 71.12a2.16 2.15 73.1 0 0 1.79.96h12.75a.75.75 0 0 0 .75-.75V83.5q0-.5-.5-.5h-13q-.5 0-.5.5v72.03a.46.46 0 0 1-.84.25l-47.96-72a1.78 1.75-16.6 0 0-1.47-.78h-12.42a.31.31 0 0 0-.31.31v92.94q0 .75.75.75h12.63q.63 0 .63-.63l-.03-71.35" vector-effect="non-scaling-stroke"/><path d="M242 83.52a.53.53 0 0 0-.53-.53h-10.94a.53.53 0 0 0-.53.53v92.94a.53.53 0 0 0 .53.53h10.94a.53.53 0 0 0 .53-.53V83.52" vector-effect="non-scaling-stroke"/></g><path d="M0 0h402v258H0V0Zm401 1.27a.27.27 0 0 0-.27-.27H1.27a.27.27 0 0 0-.27.27v255.46a.27.27 0 0 0 .27.27h399.46a.27.27 0 0 0 .27-.27V1.27Z"/><path fill="#fff" d="M401 256.73a.27.27 0 0 1-.27.27H1.27a.27.27 0 0 1-.27-.27V1.27A.27.27 0 0 1 1.27 1h399.46a.27.27 0 0 1 .27.27v255.46ZM294.1 118.86a.32.32 0 0 1-.54 0l-23.8-35.72a.32.32 0 0 0-.26-.14h-13.21a.32.32 0 0 0-.26.5l30.71 45.51a.32.32 0 0 1 0 .36l-58.73 88.13a.32.32 0 0 0 .27.5h14.22a.32.32 0 0 0 .26-.14l51.43-77.14a.32.32 0 0 1 .53-.01l24.55 36.15a.32.32 0 0 0 .27.14h12.19a.32.32 0 0 0 .27-.5l-30.55-45.82a.32.32 0 0 1 0-.36L360 42.5a.32.32 0 0 0-.27-.5h-14.24a.32.32 0 0 0-.26.14l-51.13 76.72ZM80.08 163.53c-1.53-.18-3.32-.07-4.75-.61-15.39-5.78-16.38-18.54-16.35-32.92q.05-23.24.01-46.5-.01-.5-.51-.5H45.55q-.49 0-.5.5-.18 44.01-.02 56.7.24 17.68 12.48 28.04c15.58 13.2 37 12.07 52.64-1.12 7.79-6.56 11.03-17.36 11.55-27.19q.7-13.4.16-56.52-.01-.41-.41-.41h-11.93a.52.52 0 0 0-.52.52q-.01 25.11.01 50.3 0 7.85-1.18 11.75c-3.94 12.99-14.24 19.58-27.75 17.96Zm70.9-58.51a.18.17-61.9 0 1 .32-.1l47.41 71.12a2.16 2.15 73.1 0 0 1.79.96h12.75a.75.75 0 0 0 .75-.75V83.5q0-.5-.5-.5h-13q-.5 0-.5.5v72.03a.46.46 0 0 1-.84.25l-47.96-72a1.78 1.75-16.6 0 0-1.47-.78h-12.42a.31.31 0 0 0-.31.31v92.94q0 .75.75.75h12.63q.63 0 .63-.63l-.03-71.35ZM242 83.52a.53.53 0 0 0-.53-.53h-10.94a.53.53 0 0 0-.53.53v92.94a.53.53 0 0 0 .53.53h10.94a.53.53 0 0 0 .53-.53V83.52Z"/><path d="m294.1 118.86 51.13-76.72a.32.32 0 0 1 .26-.14h14.24a.32.32 0 0 1 .27.5l-58.55 87.82a.32.32 0 0 0 0 .36L332 176.5a.32.32 0 0 1-.27.5h-12.19a.32.32 0 0 1-.27-.14l-24.55-36.15a.32.32 0 0 0-.53.01l-51.43 77.14a.32.32 0 0 1-.26.14h-14.22a.32.32 0 0 1-.27-.5l58.73-88.13a.32.32 0 0 0 0-.36L256.03 83.5a.32.32 0 0 1 .26-.5h13.21a.32.32 0 0 1 .26.14l23.8 35.72a.32.32 0 0 0 .54 0ZM80.08 163.53c13.51 1.62 23.81-4.97 27.75-17.96q1.18-3.9 1.18-11.75-.02-25.19-.01-50.3a.52.52 0 0 1 .52-.52h11.93q.4 0 .41.41.54 43.12-.16 56.52c-.52 9.83-3.76 20.63-11.55 27.19-15.64 13.19-37.06 14.32-52.64 1.12q-12.24-10.36-12.48-28.04-.16-12.69.02-56.7.01-.5.5-.5h12.93q.5 0 .51.5.04 23.26-.01 46.5c-.03 14.38.96 27.14 16.35 32.92 1.43.54 3.22.43 4.75.61ZM150.98 105.02l.03 71.35q0 .63-.63.63h-12.63q-.75 0-.75-.75V83.31a.31.31 0 0 1 .31-.31h12.42a1.78 1.75-16.6 0 1 1.47.78l47.96 72a.46.46 0 0 0 .84-.25V83.5q0-.5.5-.5h13q.5 0 .5.5v92.75a.75.75 0 0 1-.75.75H200.5a2.16 2.15 73.1 0 1-1.79-.96l-47.41-71.12a.18.17-61.9 0 0-.32.1Z"/><rect width="12" height="94" x="230" y="82.99" rx=".53"/></svg>